<svg width="24" height="24" viewBox="0 0 24 24" fill="none" xmlns="http://www.w3.org/2000/svg">
<path d="M20 20H4C3.46957 20 2.96086 19.7893 2.58579 19.4142C2.21071 19.0391 2 18.5304 2 18V6C2 5.46957 2.21071 4.96086 2.58579 4.58579C2.96086 4.21071 3.46957 4 4 4H20C20.5304 4 21.0391 4.21071 21.4142 4.58579C21.7893 4.96086 22 5.46957 22 6V18C22 18.5304 21.7893 19.0391 21.4142 19.4142C21.0391 19.7893 20.5304 20 20 20ZM4 6V18H20V6H4Z" fill="#3F83F8"/>
<path d="M8.5 12.5C7.90666 12.5 7.32664 12.3241 6.83329 11.9944C6.33994 11.6648 5.95542 11.1962 5.72836 10.6481C5.5013 10.0999 5.44189 9.49667 5.55764 8.91473C5.6734 8.33279 5.95912 7.79824 6.37868 7.37868C6.79824 6.95912 7.33279 6.6734 7.91473 6.55764C8.49667 6.44189 9.09987 6.5013 9.64805 6.72836C10.1962 6.95542 10.6648 7.33994 10.9944 7.83329C11.3241 8.32664 11.5 8.90666 11.5 9.5C11.5 10.2956 11.1839 11.0587 10.6213 11.6213C10.0587 12.1839 9.29565 12.5 8.5 12.5ZM8.5 8.5C8.30222 8.5 8.10888 8.55865 7.94443 8.66853C7.77998 8.77841 7.65181 8.93459 7.57612 9.11732C7.50043 9.30004 7.48063 9.50111 7.51921 9.69509C7.5578 9.88907 7.65304 10.0673 7.79289 10.2071C7.93275 10.347 8.11093 10.4422 8.30491 10.4808C8.49889 10.5194 8.69996 10.4996 8.88268 10.4239C9.06541 10.3482 9.22159 10.22 9.33147 10.0556C9.44135 9.89112 9.5 9.69778 9.5 9.5C9.5 9.23478 9.39464 8.98043 9.20711 8.79289C9.01957 8.60536 8.76522 8.5 8.5 8.5Z" fill="#3F83F8"/>
<path d="M5.656 17.114C5.54762 17.1142 5.43992 17.097 5.337 17.063C5.08648 16.9784 4.87965 16.798 4.76177 16.5613C4.6439 16.3247 4.62456 16.0509 4.708 15.8C4.9739 15.0075 5.48142 14.3182 6.15923 13.829C6.83705 13.3397 7.65111 13.0751 8.48704 13.0724C9.32297 13.0696 10.1388 13.3288 10.8198 13.8136C11.5008 14.2983 12.0129 14.9843 12.284 15.775C12.3267 15.8992 12.3445 16.0307 12.3364 16.1618C12.3283 16.2929 12.2944 16.4211 12.2367 16.5391C12.1791 16.6571 12.0987 16.7626 12.0003 16.8496C11.9018 16.9366 11.7872 17.0033 11.663 17.046C11.5388 17.0887 11.4073 17.1065 11.2762 17.0984C11.1451 17.0903 11.0169 17.0564 10.8989 16.9987C10.6605 16.8823 10.4782 16.6759 10.392 16.425C10.2565 16.0296 10.0005 15.6866 9.66002 15.4442C9.31954 15.2018 8.91166 15.0721 8.4937 15.0734C8.07574 15.0748 7.66869 15.207 7.32975 15.4516C6.99081 15.6961 6.737 16.0408 6.604 16.437C6.53651 16.6347 6.40879 16.8064 6.23876 16.9278C6.06873 17.0492 5.86494 17.1143 5.656 17.114Z" fill="#3F83F8"/>
<path d="M18 10H15C14.7348 10 14.4804 9.89464 14.2929 9.70711C14.1054 9.51957 14 9.26522 14 9C14 8.73478 14.1054 8.48043 14.2929 8.29289C14.4804 8.10536 14.7348 8 15 8H18C18.2652 8 18.5196 8.10536 18.7071 8.29289C18.8946 8.48043 19 8.73478 19 9C19 9.26522 18.8946 9.51957 18.7071 9.70711C18.5196 9.89464 18.2652 10 18 10Z" fill="#3F83F8"/>
<path d="M18 13H15C14.7348 13 14.4804 12.8946 14.2929 12.7071C14.1054 12.5196 14 12.2652 14 12C14 11.7348 14.1054 11.4804 14.2929 11.2929C14.4804 11.1054 14.7348 11 15 11H18C18.2652 11 18.5196 11.1054 18.7071 11.2929C18.8946 11.4804 19 11.7348 19 12C19 12.2652 18.8946 12.5196 18.7071 12.7071C18.5196 12.8946 18.2652 13 18 13Z" fill="#3F83F8"/>
<path d="M18 16H15C14.7348 16 14.4804 15.8946 14.2929 15.7071C14.1054 15.5196 14 15.2652 14 15C14 14.7348 14.1054 14.4804 14.2929 14.2929C14.4804 14.1054 14.7348 14 15 14H18C18.2652 14 18.5196 14.1054 18.7071 14.2929C18.8946 14.4804 19 14.7348 19 15C19 15.2652 18.8946 15.5196 18.7071 15.7071C18.5196 15.8946 18.2652 16 18 16Z" fill="#3F83F8"/>
</svg>
